<?xml version="1.0" encoding="UTF-8" standalone="no"?>
<svg
   xmlns:dc="http://purl.org/dc/elements/1.1/"
   xmlns:cc="http://creativecommons.org/ns#"
   xmlns:rdf="http://www.w3.org/1999/02/22-rdf-syntax-ns#"
   xmlns:svg="http://www.w3.org/2000/svg"
   xmlns="http://www.w3.org/2000/svg"
   xmlns:sodipodi="http://sodipodi.sourceforge.net/DTD/sodipodi-0.dtd"
   xmlns:inkscape="http://www.inkscape.org/namespaces/inkscape"
   viewBox="0 0 841.9 595.3"
   version="1.1"
   id="svg10"
   sodipodi:docname="logo.svg"
   inkscape:version="0.92.2 (5c3e80d, 2017-08-06)">
  <metadata
     id="metadata16">
    <rdf:RDF>
      <cc:Work
         rdf:about="">
        <dc:format>image/svg+xml</dc:format>
        <dc:type
           rdf:resource="http://purl.org/dc/dcmitype/StillImage" />
      </cc:Work>
    </rdf:RDF>
  </metadata>
  <defs
     id="defs14" />
  <sodipodi:namedview
     pagecolor="#ffffff"
     bordercolor="#666666"
     borderopacity="1"
     objecttolerance="10"
     gridtolerance="10"
     guidetolerance="10"
     inkscape:pageopacity="0"
     inkscape:pageshadow="2"
     inkscape:window-width="1366"
     inkscape:window-height="705"
     id="namedview12"
     showgrid="false"
     inkscape:zoom="0.67466444"
     inkscape:cx="616.49593"
     inkscape:cy="305.20506"
     inkscape:window-x="-8"
     inkscape:window-y="-8"
     inkscape:window-maximized="1"
     inkscape:current-layer="svg10" />
  <ellipse
     style="fill:#c83737;stroke-width:6.09989738;stroke:#f9f9f9"
     id="circle4"
     cy="297.15887"
     cx="402.72421"
     rx="280.25146"
     ry="277.28702" />
  <path
     style="fill:#61dafb"
     inkscape:connector-curvature="0"
     id="path6"
     d="M 468.62236,39.562323 Z" />
  <circle
     style="fill:#e3dbdb;fill-opacity:1;fill-rule:nonzero;stroke:#ffffff;stroke-width:10.37419796;stroke-linecap:round;stroke-linejoin:round;stroke-miterlimit:4;stroke-dasharray:none;stroke-opacity:1;paint-order:stroke markers fill"
     id="path4588"
     cx="567.54852"
     cy="323.58188"
     r="55.941212" />
  <g
     aria-label="Y"
     transform="matrix(15.501055,0,0,15.666635,-5264.8981,-5757.3681)"
     style="font-style:normal;font-variant:normal;font-weight:normal;font-stretch:normal;font-size:40px;line-height:1.25;font-family:'Freehand521 BT';-inkscape-font-specification:'Freehand521 BT';letter-spacing:0px;word-spacing:0px;fill:#e3dbdb;fill-opacity:1;stroke:#ffffff"
     id="flowRoot4590">
    <path
       d="m 368.69803,385.34536 c -1.45161,2.48545 -2.88906,4.37609 -4.31235,5.67192 -1.4233,1.29583 -2.77577,1.94375 -4.05744,1.94375 -0.65854,0 -1.16838,-0.16641 -1.52951,-0.49922 -0.36113,-0.33989 -0.5417,-0.81078 -0.5417,-1.41267 0,-0.31156 0.12392,-0.88513 0.37176,-1.72069 0.25491,-0.83556 0.5948,-1.80921 1.01967,-2.92093 0.14162,-0.35406 0.33989,-0.85327 0.5948,-1.49764 0.28561,-1.28984 2.32646,-4.60979 1.18962,-5.82062 -2.6548,-1.26788 -4.09261,2.56275 -4.11054,4.28049 0,0.36822 0.0425,0.6727 0.12745,0.91346 0.085,0.23367 0.21598,0.41424 0.393,0.5417 -0.007,0.16286 -0.0956,0.29032 -0.26554,0.38237 -0.16286,0.0921 -0.38592,0.13808 -0.66916,0.13808 -0.53108,0 -0.96656,-0.22305 -1.30645,-0.66916 -0.33281,-0.4461 -0.49921,-1.02675 -0.49921,-1.74193 0,-1.69945 0.55232,-3.16169 1.65696,-4.38671 1.11172,-1.22502 2.39693,-1.83753 3.85563,-1.83753 1.11172,0 1.97561,0.30095 2.59166,0.90283 0.61605,0.60189 0.92408,1.44808 0.92408,2.53856 0,0.58064 -0.0991,1.26396 -0.29741,2.04996 -0.19119,0.78599 -0.49567,1.71715 -0.91345,2.79347 l -1.50826,3.87687 c -0.14162,0.38946 -0.23368,0.66562 -0.27616,0.82848 -0.0425,0.16287 -0.0637,0.30095 -0.0637,0.41424 0,0.21952 0.046,0.37176 0.13807,0.45673 0.0991,0.085 0.28325,0.12746 0.55233,0.12746 0.40362,0 0.80369,-0.11683 1.20023,-0.35051 5.73565,-5.00274 4.92591,-12.00323 8.69906,-13.85052 0.47899,0.0542 1.71696,0.24333 1.74194,0.81786 0,0.1133 -0.046,0.30448 -0.13808,0.57356 -0.0283,0.085 -0.0495,0.15225 -0.0637,0.20182 l -2.2624,8.04052 c -0.31157,1.12588 -0.60543,2.12785 -0.88159,3.0059 -0.27616,0.87097 -0.5594,1.71715 -0.84972,2.53856 0.25491,0.0425 0.45672,0.0708 0.60543,0.085 0.15577,0.0142 0.29386,0.0213 0.41424,0.0213 0.085,0 0.25491,-0.007 0.50983,-0.0213 0.1133,-0.007 0.20535,-0.0141 0.27616,-0.0213 l -0.393,1.43391 c -0.0991,0.007 -0.24784,0.0141 -0.4461,0.0213 -0.19828,0.0142 -0.32573,0.0213 -0.38238,0.0213 -0.18411,0 -0.50984,-0.0319 -0.97718,-0.0956 -0.085,-0.0142 -0.15225,-0.0248 -0.20181,-0.0319 -0.82848,1.76318 -1.68883,3.0838 -2.58104,3.96185 -0.89222,0.88513 -1.82338,1.32769 -2.79348,1.32769 -0.46734,0 -0.83556,-0.10621 -1.10464,-0.31864 -0.262,-0.21244 -0.39299,-0.5063 -0.39299,-0.8816 0,-0.66561 0.41424,-1.40912 1.24272,-2.23052 0.82848,-0.81432 1.90126,-1.49764 3.21833,-2.04996 0.53108,-1.21086 1.00551,-2.4465 1.42329,-3.70693 0.42486,-1.26043 0.78246,-2.5421 1.07278,-3.84501 z"
       id="path4600"
       inkscape:connector-curvature="0"
       sodipodi:nodetypes="csscsccccccccscscsssccccscscccccccccsccccscccscsccccc"
       style="fill:#e3dbdb;stroke-width:0.54382408;stroke:#ffffff" />
  </g>
</svg>
